<svg width="34" height="19" viewBox="0 0 34 19" fill="none" xmlns="http://www.w3.org/2000/svg">
<g clip-path="url(#clip0)">
<path fill-rule="evenodd" clip-rule="evenodd" d="M31.5585 1.28656C31.7809 0.544943 31.5585 0 30.5001 0H27.0001C26.1101 0 25.6999 0.470751 25.4773 0.989849C25.4773 0.989849 23.6975 5.32823 21.1761 8.1463C20.3603 8.96204 19.9895 9.22159 19.5445 9.22159C19.322 9.22159 18.9883 8.96204 18.9883 8.22049V1.28656C18.9883 0.396621 18.7417 0 18.0001 0H12.5001C11.9439 0 11.6095 0.413039 11.6095 0.804492C11.6095 1.64813 12.8701 1.84269 13.0001 4.21585V9.36998C13.0001 10.5 12.796 10.7049 12.351 10.7049C11.1645 10.7049 8.27829 6.34711 6.5665 1.36069C6.23103 0.391497 5.89456 0 5.00006 0H1.50006C0.500061 0 0.300049 0.470751 0.300049 0.989849C0.300049 1.91688 1.48663 6.51481 5.82495 12.5959C8.71715 16.7488 12.7921 19 16.5001 19C18.7248 19 19.0001 18.5 19.0001 17.6388V14.5C19.0001 13.5 19.2108 13.3004 19.9153 13.3004C20.4344 13.3004 21.3244 13.56 23.4009 15.5623C25.774 17.9354 26.1652 19 27.5001 19H31.0001C32.0001 19 32.5001 18.5 32.2116 17.5133C31.896 16.5299 30.763 15.103 29.2595 13.4117C28.4437 12.4476 27.2201 11.4094 26.8493 10.8902C26.3302 10.2228 26.4785 9.92611 26.8493 9.33288C26.8493 9.33288 31.1135 3.32591 31.5585 1.28656V1.28656Z" fill="#4680C2"/>
</g>
<defs>
<clipPath id="clip0">
<rect width="34" height="19" fill="white"/>
</clipPath>
</defs>
</svg>
